<svg xmlns="http://www.w3.org/2000/svg" width="1920" height="1080" viewBox="0 0 1920 1080">
  <defs>
    <radialGradient id="core" cx="0.5" cy="0.2" r="0.6">
      <stop offset="0" stop-color="#3b82f6" stop-opacity="0.14"/>
      <stop offset="1" stop-color="#3b82f6" stop-opacity="0"/>
    </radialGradient>
    <linearGradient id="beam" x1="0" y1="1" x2="1" y2="0">
      <stop offset="0" stop-color="#60a5fa" stop-opacity="0"/>
      <stop offset="0.5" stop-color="#60a5fa" stop-opacity="0.14"/>
      <stop offset="1" stop-color="#60a5fa" stop-opacity="0"/>
    </linearGradient>
    <filter id="glow"><feGaussianBlur stdDeviation="4"/></filter>
  </defs>

  <rect width="1920" height="1080" fill="url(#core)"/>

  <g stroke="#3b82f6" stroke-width="1.5" fill="none" opacity="0.16">
    <line x1="0" y1="1080" x2="1920" y2="1080"/>
    <line x1="0" y1="940" x2="1920" y2="940"/>
    <line x1="0" y1="840" x2="1920" y2="840"/>
    <line x1="0" y1="760" x2="1920" y2="760"/>
    <line x1="0" y1="690" x2="1920" y2="690"/>
    <line x1="0" y1="640" x2="1920" y2="640"/>
    <line x1="0" y1="600" x2="1920" y2="600"/>
    <line x1="0" y1="570" x2="1920" y2="570"/>
    <line x1="0" y1="545" x2="1920" y2="545"/>
    <line x1="0" y1="525" x2="1920" y2="525"/>
    <line x1="960" y1="510" x2="0" y2="1080"/>
    <line x1="960" y1="510" x2="240" y2="1080"/>
    <line x1="960" y1="510" x2="480" y2="1080"/>
    <line x1="960" y1="510" x2="720" y2="1080"/>
    <line x1="960" y1="510" x2="960" y2="1080"/>
    <line x1="960" y1="510" x2="1200" y2="1080"/>
    <line x1="960" y1="510" x2="1440" y2="1080"/>
    <line x1="960" y1="510" x2="1680" y2="1080"/>
    <line x1="960" y1="510" x2="1920" y2="1080"/>
  </g>

  <g stroke="url(#beam)" stroke-width="2.5" fill="none">
    <line x1="-100" y1="1100" x2="1100" y2="-40"/>
    <line x1="300" y1="1100" x2="1500" y2="-40"/>
    <line x1="1200" y1="1100" x2="2000" y2="40"/>
  </g>

  <g fill="#7dd3fc">
    <circle cx="200" cy="400" r="2.5" opacity="0.7"/>
    <circle cx="500" cy="620" r="2" opacity="0.6"/>
    <circle cx="760" cy="340" r="3" opacity="0.7"/>
    <circle cx="1000" cy="700" r="2" opacity="0.5"/>
    <circle cx="1300" cy="420" r="2.5" opacity="0.7"/>
    <circle cx="1600" cy="640" r="2" opacity="0.6"/>
    <circle cx="1750" cy="360" r="3" opacity="0.7"/>
    <circle cx="900" cy="200" r="2" opacity="0.5"/>
    <circle cx="1500" cy="850" r="2" opacity="0.5"/>
    <circle cx="350" cy="880" r="2" opacity="0.5"/>
  </g>

  <line x1="0" y1="510" x2="1920" y2="510" stroke="#3b82f6" stroke-width="2" opacity="0.3" filter="url(#glow)"/>
</svg>
